<?xml version="1.0" encoding="UTF-8"?>
<svg width="256px" height="256px" viewBox="0 0 256 256" version="1.1" xmlns="http://www.w3.org/2000/svg">
    <g stroke="none" stroke-width="1" fill="none" fill-rule="evenodd">
        <path d="M128,0 C198.692448,0 256,57.307552 256,128 C256,198.692448 198.692448,256 128,256 C57.307552,256 0,198.692448 0,128 C0,57.307552 57.307552,0 128,0 Z" fill="#FF5A5F"/>
        <path d="M128,24 C184.885953,24 231,70.114047 231,127 C231,183.885953 184.885953,230 128,230 C71.114047,230 25,183.885953 25,127 C25,70.114047 71.114047,24 128,24 Z M128,40 C80.0426168,40 41,79.0426168 41,127 C41,174.957383 80.0426168,214 128,214 C175.957383,214 215,174.957383 215,127 C215,79.0426168 175.957383,40 128,40 Z" fill="#FFFFFF" fill-rule="nonzero"/>
    </g>
</svg>
